<?xml version="1.0" encoding="UTF-8"?><svg id="a" xmlns="http://www.w3.org/2000/svg" viewBox="0 0 430 179.11"><defs><style>.b{fill:#3a3a3c;}</style></defs><path class="b" d="M0,121.37V.11C.36,.07,.7,.01,1.04,.01c14.67,0,29.34-.03,44.01,.01,5.85,.02,11.65,.56,17.32,2.1,3.75,1.02,7.3,2.48,10.5,4.74,5.04,3.56,8.12,8.42,9.36,14.43,1.3,6.31,.91,12.56-.73,18.76-1.36,5.12-4.28,9.16-8.5,12.33-3.38,2.53-7.09,4.36-11.15,5.48-.46,.13-.92,.28-1.37,.43-.02,0-.03,.06-.09,.22,.33,.09,.64,.21,.96,.27,3.59,.7,7.06,1.75,10.29,3.5,6.3,3.42,10.26,8.69,12.01,15.58,2.03,7.99,1.63,15.92-1.08,23.7-2.21,6.35-6.52,10.92-12.32,14.18-4.53,2.54-9.4,4.07-14.51,4.85-3.52,.54-7.06,.77-10.62,.77-14.45,0-28.9,0-43.35,0H0Zm30.25-22.64c.3,.03,.52,.07,.73,.07,2.94,0,5.89,.08,8.82-.05,1.91-.09,3.86-.31,5.71-.78,4.27-1.07,7.24-3.71,8.46-8,1.16-4.07,1-8.16-.51-12.14-1.11-2.94-3.15-5.06-6.09-6.19-1.25-.49-2.6-.96-3.92-1.02-4.29-.19-8.59-.18-12.89-.24-.08,0-.16,.07-.32,.14v28.21Zm0-50.28c.38,.03,.68,.09,.98,.09,2.33,0,4.65,0,6.98-.05,3.03-.05,5.88-.83,8.57-2.22,2.72-1.41,4.48-3.59,5.31-6.53,.76-2.67,.84-5.37,.31-8.07-.71-3.56-2.33-6.5-5.78-8.14-1.6-.76-3.27-1.35-5.03-1.42-3.68-.15-7.36-.14-11.04-.19-.07,0-.15,.08-.3,.16v26.38Z"/><path class="b" d="M171.79,67.59v54.21c-1.02,.32-30.72,.41-32.5,.12V.89h32.48c.01,1.77,.02,3.55,.03,5.33,0,1.84,0,3.69,0,5.53V49.75l.32,.09c1.34-2.22,2.44-4.58,3.66-6.86,1.24-2.32,2.44-4.66,3.66-7,1.21-2.34,2.42-4.68,3.64-7.01,1.24-2.37,2.48-4.74,3.72-7.12,1.22-2.33,2.42-4.67,3.64-7.01,1.21-2.34,2.42-4.67,3.64-7.01,1.22-2.33,2.44-4.66,3.66-6.99h34.93c-.26,.5-.45,.91-.68,1.29-4.29,7.25-8.58,14.5-12.88,21.75-6.44,10.87-12.87,21.75-19.34,32.61-.49,.83-.47,1.42,0,2.25,11.6,20.61,23.16,41.23,34.73,61.85,.23,.4,.42,.83,.7,1.4-.62,.03-1.05,.07-1.47,.07-11.33,0-22.66,0-33.99,.02-.97,0-1.45-.32-1.87-1.21-8.35-17.45-16.74-34.88-25.13-52.31-.18-.37-.39-.73-.59-1.09l-.34,.12Z"/><path class="b" d="M352.42,122.09h-32.73c-2.04-8.47-4.09-16.98-6.13-25.47-1.05-.29-30.88-.41-34.55-.15-2.52,8.5-5.05,17.05-7.59,25.63h-30.32c13.02-40.48,26.02-80.86,39.02-121.21h34.91c12.46,40.37,24.91,80.72,37.39,121.19Zm-55.07-96.49l-.36,.02c-4.21,15.81-8.42,31.63-12.63,47.46,2.02,.26,22.2,.17,23.22-.11-3.41-15.79-6.81-31.59-10.22-47.38Z"/><path class="b" d="M391.26,97.54h38.74v24.43c-.89,.27-69.6,.34-71.22,.05V1.19c.96-.28,30.72-.36,32.48-.08V97.54Z"/><path class="b" d="M94.79,.35h32.29c.06,.05,.1,.07,.12,.1,.03,.03,.06,.07,.06,.11,.03,.22,.07,.43,.07,.65,0,39.92,0,79.83-.01,119.75,0,.12-.06,.25-.09,.36-1,.26-30.94,.32-32.44,.05V.35Z"/><path class="b" d="M115.78,178.53h-4.94c-1.95-6.32-3.9-12.62-5.85-18.93l-.29-.02c-1.9,6.29-3.8,12.58-5.71,18.92h-4.98c-2.44-7.6-4.88-15.22-7.36-22.95h4.65c1.73,6.23,3.46,12.45,5.18,18.67h.27c1.92-6.22,3.84-12.44,5.77-18.69h5.04c1.89,6.21,3.78,12.43,5.68,18.66h.3c1.82-6.18,3.64-12.37,5.49-18.62h4.12c-2.4,7.66-4.89,15.25-7.36,22.96Z"/><path class="b" d="M68.43,178.58c-1.98-6.41-3.92-12.68-5.85-18.95l-.28-.03c-1.98,6.26-3.77,12.57-5.75,18.9h-4.97c-2.44-7.6-4.88-15.22-7.36-22.95h4.65c1.73,6.23,3.45,12.45,5.18,18.68l.26,.02c1.92-6.22,3.84-12.45,5.77-18.71h5.04l5.7,18.71,.27-.03c1.83-6.21,3.66-12.42,5.5-18.67h4.14c-2.48,7.71-4.93,15.32-7.41,23.03h-4.91Z"/><path class="b" d="M19.84,159.61c-1.89,6.28-3.79,12.56-5.7,18.9h-4.98c-2.44-7.6-4.88-15.22-7.36-22.95H6.45l5.18,18.67,.27,.02c1.92-6.22,3.84-12.45,5.77-18.71h5.04c1.88,6.19,3.78,12.42,5.68,18.65l.29,.02c1.83-6.21,3.66-12.42,5.51-18.67,1.34,0,2.6,0,3.86,0,.06,1.02-4.92,17.01-7.19,23.04h-4.85c-1.96-6.35-3.91-12.66-5.86-18.96l-.31-.02Z"/><path class="b" d="M151.99,175.46v3.05h-3.85v-33.78h3.97v13.53c.24-.05,.35-.04,.39-.09,2.6-3.35,6.08-3.69,9.86-2.83,2.9,.66,4.73,2.65,5.76,5.31,1.89,4.9,1.56,9.72-.95,14.34-1.8,3.31-5.35,4.42-8.65,4.03-2.67-.31-3.86-.99-6.53-3.56Zm12.93-8.98c-.02-1.32-.26-3.04-.97-4.69-.93-2.17-2.64-3.28-4.91-3.39-2.14-.1-3.92,.74-5.15,2.6-2.31,3.48-2.48,8.58,.25,12.39,1.29,1.8,3.13,2.44,5.3,2.19,2.03-.24,3.31-1.51,4.22-3.2,.91-1.69,1.26-3.54,1.26-5.9Z"/><path class="b" d="M216.1,155.48c-3.34,3.43-6.61,6.78-9.99,10.24,3.83,4.22,7.64,8.42,11.67,12.86-2.05,0-3.75,.05-5.44-.04-.39-.02-.84-.41-1.13-.75-2.23-2.6-4.42-5.23-6.63-7.84-.81-.96-1.63-1.9-2.69-2.77v11.31h-4.09v-33.75c.22-.03,.38-.08,.55-.08,1.1,0,2.19,0,3.25,0,.08,.08,.11,.11,.14,.14,.03,.03,.07,.06,.08,.1,.02,.13,.04,.26,.04,.39,.01,6.32,.03,12.64,.04,18.97,0,.04,.03,.08,.06,.19,.53-.05,.77-.49,1.07-.81,2.38-2.46,4.76-4.92,7.11-7.42,.53-.56,1.07-.79,1.83-.76,1.36,.06,2.72,.02,4.14,.02Z"/><path class="b" d="M407.5,165.71c3.9,4.29,7.67,8.45,11.57,12.73-.44,.06-.71,.13-.99,.13-1.27,.01-2.55-.04-3.82,.02-.74,.03-1.21-.24-1.67-.79-2.7-3.24-5.42-6.45-8.14-9.67-.28-.33-.58-.65-.84-.94-.11,.03-.15,.03-.19,.05-.04,.02-.09,.05-.09,.08,0,3.68,0,7.37,0,11.21-1.41,.09-2.7,.05-4.08,.03v-33.83h3.99c.07,1.62,.02,3.27,.03,4.92,0,1.62,0,3.25,0,4.87v5c0,1.62,0,3.24,0,5.07,.38-.28,.63-.41,.81-.6,2.5-2.59,5.01-5.17,7.48-7.79,.5-.53,.99-.76,1.71-.74,1.4,.05,2.8,.01,4.43,.01-1.04,1.41-2.28,2.37-3.35,3.47-1.1,1.13-2.25,2.22-3.37,3.33-1.12,1.1-2.24,2.21-3.47,3.42Z"/><path class="b" d="M245.04,178.51h-3.6l-.16-2.71c-.43,.39-.71,.64-.97,.9-1.88,1.83-4.15,2.56-6.73,2.39-1.59-.1-3.12-.43-4.51-1.28-.92-.57-1.68-1.28-2.13-2.27-1.49-3.2-1.22-7.63,3.13-9.73,2.26-1.09,4.64-1.55,7.14-1.45,1.18,.05,2.35,0,3.52,0,.59-3.1-.95-5.36-3.94-5.85-2.4-.39-4.61,.17-6.68,1.38-.34,.2-.67,.4-1.01,.6-.03,.02-.08-.02-.24-.06-.04-.91-.08-1.85-.14-2.8-.03-.47,.24-.72,.61-.92,3.59-1.86,7.32-2.42,11.16-.92,2.62,1.02,3.89,3.18,4.3,5.86,.18,1.17,.26,2.36,.27,3.54,.04,4.21,.03,8.43,.04,12.64,0,.21-.03,.42-.05,.69Zm-4.18-10.98c-1.69,0-3.22-.1-4.74,.03-1.43,.12-2.85,.47-4.07,1.33-2.06,1.45-2.09,4.29-.09,5.81,1.24,.94,2.61,1.06,4.1,.84,2.3-.35,4.03-1.83,4.61-4.09,.32-1.24,.26-2.5,.19-3.92Z"/><path class="b" d="M315.39,166.97c.17-3.66,1.25-6.88,4.02-9.33,3.04-2.68,6.65-3.19,10.49-2.33,4.39,.98,7.54,4.57,8.19,9.24,.38,2.69,.25,5.35-.9,7.87-2.1,4.59-6.16,6.92-10.97,6.65-5.98-.33-9.15-4.71-10.14-8.23-.36-1.25-.47-2.57-.7-3.86Zm4.54,.09c-.06,1.55,.32,3.1,1.03,4.6,1.09,2.32,2.75,3.8,5.42,3.96,2.19,.14,4.07-.43,5.47-2.21,2.59-3.31,2.78-8.62,.45-12.13-2.49-3.75-7.87-3.88-10.51-.24-1.28,1.76-1.89,3.74-1.86,6.03Z"/><path class="b" d="M366.91,155.54h3.92v1.45c0,3.42-.02,6.85,.01,10.27,.01,1.22,.15,2.45,.27,3.67,.04,.43,.18,.86,.32,1.27,.97,2.98,3.26,4.05,6.34,3.12,1.41-.43,2.43-1.35,3.15-2.63,1-1.77,1.39-3.7,1.43-5.69,.07-3.25,.05-6.49,.07-9.74,0-.52,0-1.05,0-1.68h3.8c.25,.98,.3,21.36,.05,22.91h-3.73v-3.28c-.37,.37-.55,.51-.69,.69-1.95,2.53-4.63,3.36-7.68,3.13-.99-.08-1.99-.35-2.92-.73-2.21-.89-3.43-2.68-3.99-4.91-.26-1.01-.41-2.08-.42-3.12-.04-4.61-.02-9.22-.02-13.83,0-.26,.05-.52,.08-.92Z"/><path class="b" d="M306.72,155.96c-.13,1.11-.26,2.19-.39,3.29-1.12-.26-2.12-.56-3.13-.73-3.19-.53-5.87,.77-7.31,3.66-1.86,3.73-1.56,7.39,.76,10.84,1.45,2.15,3.65,2.81,6.09,2.58,1.24-.11,2.44-.59,3.78-.93,.41,1.01,.23,2.22,.31,3.5-2.06,.85-4.16,1.05-6.32,.84-6.38-.62-10.21-6.39-10.09-11.57,.04-1.52,.13-3.09,.54-4.55,1.26-4.58,4.88-7.47,9.61-7.92,1.66-.16,4.66,.17,6.18,.96Z"/><path class="b" d="M261.98,178.52h-3.81v-33.77h3.79c.27,.96,.3,32.45,.02,33.77Z"/><path class="b" d="M184.95,178.54h-3.82c-.27-.98-.34-21.23-.08-22.96h3.9v22.96Z"/><path class="b" d="M275.07,173.68h4.77v4.82h-4.77v-4.82Z"/><path class="b" d="M135.61,178.54h-4.72c-.12-1.61-.05-3.2-.04-4.86h4.76v4.86Z"/><path class="b" d="M349.69,178.51v-4.8h4.66v4.8h-4.66Z"/><path class="b" d="M185.2,145.78v4.5h-4.51c-.13-1.48-.03-2.94-.06-4.5h4.58Z"/></svg>